:SAMPLES-PER-SECOND 30
:FULLY-SPECIFIED
:DEGREES
123
root  20.0058 37.5798 3.56177 -121.832 80.3454 -121.574
RightUpLeg  -23.1802 1.16122 11.1208
RightLeg  26.2983 4.65426 -2.62769
RightFoot  -4.38981 0.17332 -2.27148
RightToes  1.16414e-010 -1.59028e-015 9.93923e-017
Spine  6.99648 -4.4375 4.89369
Spine1  5.13017 -5.55276 8.71199
HEad  -17.0384 4.98458 3.45133
LeftShoulder1  9.93923e-017 0 1.22299e-017
LeftArm  8.3389 7.28072 -85.4998
LeftForeArm  -18.4947 -14.7374 -2.52436
LeftHand  0.533112 4.70068 5.75288
RightShoulder  1.98785e-016 -4.96962e-017 1.55301e-017
RightArm  -26.4015 -45.0199 79.9117
RightForeArm  -151.12 3.27953 -9.34691
RightHand  1.75746 9.84268 18.7352
LeftUpLeg  -0.524 -7.33558 12.1732
LeftLeg  51.4314 -5.37197 8.5453
LeftFoot  22.28 0.940664 -2.69984
LeftToes  -6.63929e-010 -3.62392e-011 -1.02376e-010
124
root  21.8343 38.1158 3.73041 -122.125 81.1872 -121.65
RightUpLeg  -18.4619 2.80983 10.844
RightLeg  23.6747 3.43927 -2.84667
RightFoot  -5.66503 0.173553 -2.67262
RightToes  1.16414e-010 -1.59028e-015 9.93923e-017
Spine  6.21483 -3.48425 4.70155
Spine1  4.82017 -4.42156 7.7458
HEad  -15.1635 3.95289 3.4794
LeftShoulder1  9.93923e-017 0 1.22299e-017
LeftArm  -4.07086 15.3471 -86.0983
LeftForeArm  -6.37853 -6.43077 -7.23377
LeftHand  0.613051 5.05965 5.19778
RightShoulder  1.98785e-016 -4.96962e-017 1.55301e-017
RightArm  -25.059 -36.6964 81.9875
RightForeArm  -154.803 5.55343 -10.1069
RightHand  2.02871 10.0126 20.5344
LeftUpLeg  -6.01915 -6.79464 10.4736
LeftLeg  55.4112 -6.94484 7.75666
LeftFoot  16.885 0.715357 -2.4759
LeftToes  -6.63929e-010 -3.62392e-011 -1.02376e-010
125
root  23.644 38.5423 3.84032 -122.408 82.3027 -121.753
RightUpLeg  -13.8651 4.55092 10.3319
RightLeg  21.1491 2.15796 -2.98271
RightFoot  -7.06308 0.166692 -3.15372
RightToes  1.16414e-010 -1.59028e-015 9.93923e-017
Spine  5.05409 -2.45461 5.30055
Spine1  5.14398 -2.92251 5.71926
HEad  -13.5709 2.52487 3.63699
LeftShoulder1  9.93923e-017 0 1.22299e-017
LeftArm  -13.8673 23.8714 -85.2929
LeftForeArm  5.40106 -4.10221 -6.39238
LeftHand  0.737965 5.66183 4.24629
RightShoulder  1.98785e-016 -4.96962e-017 1.55301e-017
RightArm  -21.9699 -29.1181 82.976
RightForeArm  -160.515 9.31368 -11.9741
RightHand  2.26292 10.1548 22.0622
LeftUpLeg  -11.1216 -6.46046 8.27709
LeftLeg  56.511 -8.3602 5.77707
LeftFoot  12.922 0.80084 -3.25596
LeftToes  -6.63929e-010 -3.62392e-011 -1.02376e-010
126
root  25.4747 38.8491 3.91884 -121.293 83.6116 -120.675
RightUpLeg  -9.50179 5.24227 9.7808
RightLeg  18.6422 2.07744 -2.78787
RightFoot  -8.11814 0.146275 -3.35755
RightToes  1.16414e-010 -1.59028e-015 9.93923e-017
Spine  3.53602 -1.28676 6.69579
Spine1  5.78415 -1.05637 2.49673
HEad  -12.4879 0.855917 4.08986
LeftShoulder1  9.93923e-017 0 1.22299e-017
LeftArm  -16.8607 32.4335 -82.6351
LeftForeArm  11.2019 -3.07192 -5.77229
LeftHand  0.895536 6.47206 1.96282
RightShoulder  1.98785e-016 -4.96962e-017 1.55301e-017
RightArm  -18.2038 -22.2481 82.9481
RightForeArm  -166.747 13.9537 -15.1533
RightHand  2.20926 9.63867 22.0419
LeftUpLeg  -15.9394 -6.13669 6.06755
LeftLeg  54.9624 -9.05179 4.18795
LeftFoot  10.7623 0.840983 -3.77196
LeftToes  -6.63929e-010 -3.62392e-011 -1.02376e-010
127
root  27.3037 39.0981 3.97709 -115.938 84.9453 -115.41
RightUpLeg  -5.23812 4.27648 9.1782
RightLeg  15.9154 4.00048 -2.08833
RightFoot  -8.54893 0.140956 -3.54666
RightToes  1.16414e-010 -1.59028e-015 9.93923e-017
Spine  2.59597 -0.00432115 8.37202
Spine1  5.80755 0.927349 -1.16037
HEad  -12.0602 -0.620689 4.4501
LeftShoulder1  9.93923e-017 0 1.22299e-017
LeftArm  -10.7251 40.8295 -78.0576
LeftForeArm  8.35798 -3.72917 -6.10267
LeftHand  1.01929 7.26479 -1.34625
RightShoulder  1.98785e-016 -4.96962e-017 1.55301e-017
RightArm  -14.6212 -15.6309 81.7872
RightForeArm  -172.444 18.4614 -18.8282
RightHand  2.03811 8.52488 21.6059
LeftUpLeg  -20.2071 -5.63133 4.29006
LeftLeg  50.8307 -8.95042 3.43284
LeftFoot  8.15742 0.759679 -3.86577
LeftToes  -6.63929e-010 -3.62392e-011 -1.02376e-010
128
root  29.0788 39.2012 3.99817 -103.548 85.6869 -102.975
RightUpLeg  -1.46531 3.07141 8.70327
RightLeg  14.173 6.42573 -1.19327
RightFoot  -9.11712 0.136688 -3.94583
RightToes  1.16414e-010 -1.59028e-015 9.93923e-017
Spine  2.63985 1.23337 10.3398
Spine1  5.13908 2.70759 -4.19505
HEad  -12.2913 -1.78631 4.53007
LeftShoulder1  9.93923e-017 0 1.22299e-017
LeftArm  0.482287 48.526 -71.7346
LeftForeArm  1.21408 -5.25427 -6.71191
LeftHand  1.07075 7.78481 -4.32927
RightShoulder  1.98785e-016 -4.96962e-017 1.55301e-017
RightArm  -12.7467 -8.9309 79.5991
RightForeArm  -175.306 22.4825 -21.5204
RightHand  2.07117 7.95475 22.2957
LeftUpLeg  -23.4731 -4.96332 3.47263
LeftLeg  44.051 -8.08859 3.20402
LeftFoot  5.32178 0.717585 -4.25542
LeftToes  -6.63929e-010 -3.62392e-011 -1.02376e-010
129
root  30.8246 39.1328 3.9919 -87.7674 85.6744 -87.1843
RightUpLeg  1.82985 2.32332 8.49374
RightLeg  13.3787 8.44784 -0.502842
RightFoot  -10.1179 0.113778 -4.37253
RightToes  1.16414e-010 -1.59028e-015 9.93923e-017
Spine  2.86287 2.43649 12.207
Spine1  4.57185 4.22051 -6.30609
HEad  -12.8768 -2.82899 4.55825
LeftShoulder1  9.93923e-017 0 1.22299e-017
LeftArm  10.8352 54.6547 -64.0106
LeftForeArm  -3.43653 -6.26369 -6.94447
LeftHand  1.07263 7.94299 -6.25966
RightShoulder  1.98785e-016 -4.96962e-017 1.55301e-017
RightArm  -12.0378 -2.41728 76.8576
RightForeArm  -175.689 25.9469 -23.3702
RightHand  2.26316 8.39955 23.4186
LeftUpLeg  -25.5394 -4.32018 3.4468
LeftLeg  34.4945 -6.56792 2.89053
LeftFoot  4.24117 0.714904 -4.52136
LeftToes  -6.63929e-010 -3.62392e-011 -1.02376e-010
130
root  32.5424 39.0455 3.99443 -74.5114 85.6033 -74.1206
RightUpLeg  5.2483 1.98245 8.08627
RightLeg  11.7984 9.82336 -0.136038
RightFoot  -10.7769 0.0857313 -4.24064
RightToes  1.16414e-010 -1.59028e-015 9.93923e-017
Spine  2.79899 3.57581 13.0207
Spine1  4.57114 5.52195 -7.89125
HEad  -13.4316 -3.78432 4.752
LeftShoulder1  9.93923e-017 0 1.22299e-017
LeftArm  16.782 58.862 -55.3834
LeftForeArm  -2.41972 -5.87865 -6.89186
LeftHand  1.06311 7.92637 -7.32051
RightShoulder  1.98785e-016 -4.96962e-017 1.55301e-017
RightArm  -11.9047 3.30651 74.0681
RightForeArm  -175.674 28.6247 -25.114
RightHand  2.35309 8.84582 23.7159
LeftUpLeg  -26.4275 -4.28135 3.53016
LeftLeg  22.1403 -4.66016 1.90155
LeftFoot  4.81515 0.679102 -4.14407
LeftToes  -6.63929e-010 -3.62392e-011 -1.02376e-010
131
root  34.241 38.95 3.99375 -65.2393 85.7106 -64.9955
RightUpLeg  8.76143 1.62999 7.43624
RightLeg  9.87362 10.6419 -0.00624364
RightFoot  -11.0673 0.0590457 -3.3196
RightToes  1.16414e-010 -1.59028e-015 9.93923e-017
Spine  2.91294 4.32458 13.0272
Spine1  4.79402 6.49937 -9.17214
HEad  -13.9112 -4.45342 5.04155
LeftShoulder1  9.93923e-017 0 1.22299e-017
LeftArm  19.1882 61.496 -46.6784
LeftForeArm  1.53753 -4.58725 -6.62109
LeftHand  1.07253 8.09483 -7.72711
RightShoulder  1.98785e-016 -4.96962e-017 1.55301e-017
RightArm  -12.7348 7.93798 71.6657
RightForeArm  -175.974 30.4275 -26.3466
RightHand  2.32558 8.66307 23.6672
LeftUpLeg  -26.2244 -4.1757 3.11961
LeftLeg  8.46464 -4.11556 0.583062
LeftFoot  4.73006 0.661282 -4.06183
LeftToes  -6.63929e-010 -3.62392e-011 -1.02376e-010
132
root  36.0301 38.7162 3.94143 -62.5336 85.7828 -62.225
RightUpLeg  11.9029 1.09584 6.87498
RightLeg  9.47434 11.2007 0.0214432
RightFoot  -11.5142 0.0287981 -2.1146
RightToes  1.16414e-010 -1.59028e-015 9.93923e-017
Spine  3.20721 4.48063 13.0982
Spine1  5.03294 6.98331 -10.0851
HEad  -14.5659 -4.69464 5.23344
LeftShoulder1  9.93923e-017 0 1.22299e-017
LeftArm  20.149 62.9588 -39.3647
LeftForeArm  4.85906 -3.3581 -6.16896
LeftHand  1.11027 8.59366 -7.63124
RightShoulder  1.98785e-016 -4.96962e-017 1.55301e-017
RightArm  -13.7403 11.4578 70.0969
RightForeArm  -176.58 31.2939 -26.9796
RightHand  2.35602 8.47067 24.0664
LeftUpLeg  -25.8986 -2.16733 1.55049
LeftLeg  -1.67273 -6.70409 0.243646
LeftFoot  2.52561 0.681397 -4.81986
LeftToes  -6.63929e-010 -3.62392e-011 -1.02376e-010
133
root  37.9293 38.3962 3.82789 -62.4551 86.0132 -62.2683
RightUpLeg  14.5524 0.793117 6.19163
RightLeg  10.1079 11.7187 -0.0150139
RightFoot  -11.5856 0.00883532 -0.645203
RightToes  1.16414e-010 -1.59028e-015 9.93923e-017
Spine  2.84104 4.34996 12.8254
Spine1  5.73469 7.07556 -10.5859
HEad  -15.4808 -4.58194 5.34309
LeftShoulder1  9.93923e-017 0 1.22299e-017
LeftArm  20.1099 63.5817 -35.0681
LeftForeArm  6.86897 -2.5918 -5.70816
LeftHand  1.15759 9.17099 -7.36265
RightShoulder  1.98785e-016 -4.96962e-017 1.55301e-017
RightArm  -14.5569 13.5584 69.539
RightForeArm  -177.003 31.7774 -27.343
RightHand  2.39611 8.4818 24.3614
LeftUpLeg  -27.1191 -2.91631 1.13812
LeftLeg  -2.83688 -5.80457 0.337541
LeftFoot  -0.0933723 0.582531 -4.96678
LeftToes  -6.63929e-010 -3.62392e-011 -1.02376e-010
134
root  39.9611 38.0119 3.68101 -53.8764 86.5554 -54.2467
RightUpLeg  16.3009 1.14958 4.87489
RightLeg  11.9487 12.091 0.125721
RightFoot  -11.3474 -0.0296985 2.0326
RightToes  1.16414e-010 -1.59028e-015 9.93923e-017
Spine  1.52265 4.34774 11.48
Spine1  6.87153 7.09122 -10.6404
HEad  -16.4149 -4.32946 5.65702
LeftShoulder1  9.93923e-017 0 1.22299e-017
LeftArm  19.0334 63.7428 -34.2037
LeftForeArm  7.87596 -2.24942 -5.41644
LeftHand  1.18344 9.45233 -7.14818
RightShoulder  1.98785e-016 -4.96962e-017 1.55301e-017
RightArm  -15.1289 13.5376 69.8808
RightForeArm  -177.585 32.6784 -28.0193
RightHand  2.33562 8.3675 24.0041
LeftUpLeg  -29.354 -4.30122 0.487036
LeftLeg  3.11482 -3.23031 1.40285
LeftFoot  0.407534 0.472111 -3.92758
LeftToes  -6.63929e-010 -3.62392e-011 -1.02376e-010
135
root  42.0967 37.6041 3.52 -27.0864 86.8255 -27.8525
RightUpLeg  16.9495 1.93403 2.55987
RightLeg  16.0895 12.179 0.803505
RightFoot  -9.71504 -0.17495 5.60835
RightToes  1.16414e-010 -1.59028e-015 9.93923e-017
Spine  0.372643 4.57768 9.20052
Spine1  7.52638 7.14986 -10.4938
HEad  -17.1388 -4.12126 6.28232
LeftShoulder1  9.93923e-017 0 1.22299e-017
LeftArm  16.7989 63.5477 -36.3881
LeftForeArm  7.41074 -2.20582 -5.39909
LeftHand  1.17834 9.36903 -7.08208
RightShoulder  1.98785e-016 -4.96962e-017 1.55301e-017
RightArm  -15.1672 11.0306 71.0708
RightForeArm  -178.685 34.1243 -29.1484
RightHand  2.31178 8.39808 23.7924
LeftUpLeg  -30.8007 -6.87512 0.468769
LeftLeg  10.6395 0.910427 2.53749
LeftFoot  4.58012 0.399206 -2.45168
LeftToes  -6.63929e-010 -3.62392e-011 -1.02376e-010
136
root  44.1763 37.3141 3.35357 6.95345 86.2376 6.50127
RightUpLeg  16.0875 1.72207 -0.861663
RightLeg  23.225 12.3084 1.5043
RightFoot  -3.47491 -0.626254 7.59393
RightToes  1.16414e-010 -1.59028e-015 9.93923e-017
Spine  0.697845 4.54907 6.41295
Spine1  7.34306 7.03956 -10.6536
HEad  -17.6334 -3.9049 6.76864
LeftShoulder1  9.93923e-017 0 1.22299e-017
LeftArm  12.2399 62.4619 -41.8536
LeftForeArm  5.69759 -2.30275 -5.55873
LeftHand  1.15554 9.16197 -7.43914
RightShoulder  1.98785e-016 -4.96962e-017 1.55301e-017
RightArm  -14.3652 6.60864 73.2677
RightForeArm  -179.79 35.1848 -30.0241
RightHand  2.42433 8.77783 24.3063
LeftUpLeg  -30.9014 -7.78944 -0.808757
LeftLeg  17.2945 2.26884 3.47674
LeftFoot  7.22098 0.211908 -1.02793
LeftToes  -6.63929e-010 -3.62392e-011 -1.02376e-010
